<svg width="204" height="29" viewBox="0 0 204 29" fill="none" xmlns="http://www.w3.org/2000/svg">
<path d="M3.62301 24.4643H7.58037V13.3845L19.9726 5.00145L32.3649 13.3845V24.4643H36.3222V26.6602H3.62301V24.4643ZM19.9726 0.522095L25.3475 4.15844V0.522095H32.1769V8.77876L39.4159 13.6763L37.2994 16.7229L19.9726 5.00145L2.64581 16.7229L0.529297 13.6763L19.9726 0.522095Z" fill="#24353F"/>
<path fill-rule="evenodd" clip-rule="evenodd" d="M19.6733 0.0915301C19.8537 -0.0305096 20.0916 -0.0305101 20.272 0.091529L24.8182 3.16725V0.522389C24.8182 0.233881 25.0552 7.78561e-09 25.3476 7.78561e-09H32.1769C32.4693 7.78561e-09 32.7063 0.233881 32.7063 0.522389V8.50383L39.7153 13.2457C39.8311 13.3241 39.9106 13.4446 39.9364 13.5808C39.9621 13.717 39.932 13.8577 39.8526 13.972L37.7361 17.0185C37.5708 17.2565 37.2413 17.3171 37.0002 17.154L32.8943 14.3764V23.9422H36.3223C36.6147 23.9422 36.8517 24.1761 36.8517 24.4646V26.6606C36.8517 26.9491 36.6147 27.1829 36.3223 27.1829H3.62307C3.33072 27.1829 3.09372 26.9491 3.09372 26.6606V24.4646C3.09372 24.1761 3.33072 23.9422 3.62307 23.9422H7.05108V14.3764L2.94518 17.154C2.70405 17.3171 2.37458 17.2565 2.20927 17.0185L0.0927546 13.972C0.0133685 13.8577 -0.0167665 13.717 0.00897889 13.5808C0.0347243 13.4446 0.114241 13.3241 0.230037 13.2457L19.6733 0.0915301ZM7.28113 12.9539C7.27736 12.9564 7.27362 12.959 7.26993 12.9617L2.78317 15.9969L1.26529 13.8121L19.9727 1.15575L25.0483 4.5896C25.2103 4.69922 25.4205 4.71127 25.5944 4.6209C25.7682 4.53053 25.877 4.35261 25.877 4.15874V1.04478H31.6476V8.77906C31.6476 8.95132 31.7336 9.11251 31.8776 9.20992L38.6801 13.8121L37.1622 15.9969L32.6758 12.9619C32.672 12.9592 32.6681 12.9565 32.6642 12.9539L20.272 4.57087C20.0916 4.44885 19.8537 4.44885 19.6733 4.57087L7.28113 12.9539ZM8.10979 13.6602V24.4646C8.10979 24.7531 7.87279 24.987 7.58044 24.987H4.15243V26.1382H35.7929V24.987H32.3649C32.0726 24.987 31.8356 24.7531 31.8356 24.4646V13.6602L19.9727 5.63509L8.10979 13.6602Z" fill="#24353F"/>
<path fill-rule="evenodd" clip-rule="evenodd" d="M23.3736 13.9567C23.348 13.9671 23.3216 13.9765 23.2947 13.9847C23.3247 14.0247 23.3218 14.0728 23.327 14.1084C23.3347 14.1615 23.3603 14.1868 23.4653 14.2247C23.5704 14.2626 23.7548 14.3131 23.9622 14.4395C24.1697 14.5659 24.4002 14.7681 24.8126 15.347C25.225 15.9259 25.8193 16.8814 26.1421 17.402C26.4647 17.9228 26.516 18.0087 26.5672 18.0517C26.6185 18.0947 26.6697 18.0947 26.767 18.029C26.8644 17.9632 27.0078 17.8318 27.2281 17.7383C27.4484 17.6448 27.7455 17.5892 27.9145 17.5538C28.0836 17.5183 28.1246 17.5032 28.1451 17.4502C28.1645 17.4 28.1656 17.3161 28.185 17.2601C27.8759 17.2002 27.6432 16.938 27.6432 16.6235C27.6432 16.2649 27.9459 15.9741 28.3193 15.9741C28.3631 15.9741 28.4059 15.9782 28.4474 15.9858C28.5021 15.8596 28.5588 15.7334 28.7024 15.6C28.8496 15.4633 29.0877 15.3192 29.2837 15.3647C29.4797 15.4102 29.6334 15.6453 29.6692 15.864C29.7051 16.0826 29.6231 16.2848 29.5885 16.42C29.554 16.5552 29.5667 16.6235 29.6206 16.6539C29.6743 16.6842 29.7691 16.6766 29.828 16.645C29.887 16.6134 29.91 16.5578 29.901 16.5819C29.8921 16.6058 29.8511 16.7095 29.7602 16.7802C29.6693 16.851 29.5283 16.8889 29.4246 16.8359C29.3209 16.7827 29.2543 16.6386 29.2145 16.4972C29.1749 16.3556 29.1621 16.2165 29.1134 16.1356C29.0647 16.0547 28.9802 16.032 28.9063 16.0526C28.8522 16.0677 28.8039 16.106 28.7521 16.1246C28.9008 16.2436 28.9955 16.4229 28.9955 16.6235C28.9955 16.9583 28.7317 17.2338 28.3929 17.2691L28.3935 17.2707C28.4115 17.3162 28.4115 17.3717 28.4192 17.4198C28.4268 17.4678 28.4423 17.5083 28.5062 17.536C28.5703 17.5638 28.683 17.579 28.87 17.7256C29.057 17.8722 29.3183 18.1503 29.5539 18.4057C29.7896 18.6609 29.9997 18.8934 30.1969 19.0603C30.3941 19.2271 30.5785 19.3282 30.6374 19.404C30.6964 19.4799 30.6297 19.5305 30.5042 19.5532C30.3787 19.5759 30.1943 19.5709 29.9919 19.442C29.7896 19.313 29.5693 19.0603 29.4027 18.9011C29.2363 18.7418 29.1236 18.676 29.0493 18.6811C28.975 18.6861 28.9392 18.762 28.9315 18.8479C28.9238 18.9339 28.9443 19.03 29.1343 19.404C29.3244 19.7781 29.684 20.4303 30.0436 21.0825C29.6722 21.0825 29.3008 21.0825 28.9293 21.0825C28.9012 22.2099 28.873 23.3372 28.8449 24.4646C28.6463 24.4646 28.4477 24.4646 28.2491 24.4646C28.1188 23.3372 27.9885 22.2099 27.8582 21.0825C27.4994 21.0825 27.1407 21.0825 26.7818 21.0825C27.0791 20.1624 27.3765 19.2423 27.5251 18.7494C27.6738 18.2565 27.6738 18.1907 27.6149 18.1832C27.556 18.1755 27.4381 18.2261 27.2639 18.3247C27.0898 18.4233 26.8592 18.5699 26.6927 18.6482C26.5262 18.7266 26.4239 18.7367 26.2727 18.6028C26.1216 18.4688 25.9218 18.1907 25.5811 17.7484C25.2404 17.306 24.7589 16.6993 24.5002 16.386C24.2414 16.0725 24.2056 16.0523 24.1646 16.3834C24.1236 16.7146 24.0775 17.397 24.0928 17.8293C24.1082 18.2616 24.1851 18.4435 24.3567 18.8884C24.5283 19.3332 24.7947 20.041 25.0611 20.7488C24.6917 20.7475 24.3223 20.7461 23.9529 20.7448C23.9031 21.9848 23.8531 23.2247 23.8033 24.4646C23.4614 24.4646 23.1195 24.4646 22.7776 24.4646C22.5939 23.2247 22.4102 21.9848 22.2266 20.7448C21.9378 20.7448 21.649 20.7448 21.3602 20.7448C21.472 19.8412 21.5836 18.9376 21.6446 18.1774C21.7056 17.4172 21.7158 16.8004 21.698 16.5022C21.68 16.2039 21.6339 16.2242 21.3009 16.659C20.9679 17.0937 20.348 17.9431 19.9868 18.3829C19.6257 18.8227 19.5232 18.853 19.408 18.848C19.2927 18.8429 19.1646 18.8025 18.8341 18.436C18.5037 18.0694 17.971 17.3768 17.7046 17.0937C17.4382 16.8105 17.4382 16.937 17.4715 17.5032C17.5048 18.0694 17.5714 19.0754 17.6769 20.309C17.7824 21.5425 17.9269 23.0036 18.0714 24.4646C17.6944 24.4646 17.3174 24.4646 16.9405 24.4646C16.6965 23.2108 16.4526 21.9571 16.2087 20.7033C15.973 21.9571 15.7373 23.2108 15.5017 24.4646C15.1072 24.4646 14.7127 24.4646 14.3183 24.4646C14.3951 23.4535 14.472 22.4424 14.5001 21.5981C14.5284 20.7539 14.5078 20.0764 14.4618 19.2599C14.4157 18.4435 14.344 17.4881 14.2748 16.9826C14.2056 16.4769 14.139 16.4213 13.788 16.0574C13.4371 15.6933 12.8019 15.0209 12.4587 14.5583C12.1154 14.0958 12.0642 13.8431 12.0975 13.6307C12.1308 13.4184 12.2486 13.2465 12.5227 13.0418C12.7968 12.8369 13.2272 12.5993 13.5268 12.3365C13.8264 12.0736 13.9955 11.7853 14.1748 11.5269C14.354 11.2683 14.5433 11.0393 14.7381 10.9054C14.9327 10.7714 15.1327 10.7325 15.4349 10.7003C15.7373 10.6681 16.1421 10.6429 16.4494 10.6631C16.7568 10.6833 16.9669 10.7491 17.1744 11.0296C17.3819 11.3102 17.5867 11.8057 17.6789 12.1798C17.7711 12.5538 17.7506 12.8067 17.6303 13.11C17.5099 13.4133 17.2895 13.7672 17.1794 13.9618C17.0693 14.1564 17.0693 14.1919 17.351 14.6089C17.6328 15.026 18.1963 15.8248 18.6011 16.3935C19.0058 16.9622 19.2516 17.301 19.3874 17.4603C19.5232 17.6195 19.5488 17.5993 19.8587 17.1114C20.1687 16.6235 20.763 15.6681 21.1779 15.112C21.5929 14.5559 21.8285 14.3991 22.0514 14.3081C22.2742 14.2171 22.4843 14.1919 22.5893 14.1489C22.6756 14.1136 22.691 14.0664 22.6909 14.0254C22.4295 14.0478 22.1916 14.068 22.1268 14.0843C21.9718 14.1235 21.7566 14.1412 21.6118 14.1147C21.4672 14.0882 21.3929 14.0173 21.3813 13.9959C21.3698 13.9744 21.4211 14.0022 21.5389 13.9808C21.6567 13.9592 21.8411 13.8885 21.8808 13.7064C21.9205 13.5244 21.8156 13.2313 21.8399 12.914C21.8642 12.5968 22.0179 12.2555 22.21 12.085C22.4021 11.9143 22.6327 11.9143 22.7697 11.937C22.9067 11.9597 22.9503 12.0053 22.9939 12.0508C23.0374 12.0053 23.081 11.9597 23.218 11.937C23.3551 11.9143 23.5857 11.9143 23.7778 12.085C23.9699 12.2555 24.1235 12.5968 24.1478 12.914C24.1721 13.2313 24.0671 13.5244 24.1069 13.7064C24.1465 13.8885 24.331 13.9592 24.4489 13.9808C24.5667 14.0022 24.6179 13.9744 24.6064 13.9959C24.5948 14.0173 24.5206 14.0882 24.3759 14.1147C24.2311 14.1412 24.016 14.1235 23.861 14.0843C23.706 14.0451 23.6112 13.9845 23.5164 13.9238C23.4992 13.9348 23.4476 13.9459 23.3736 13.9567ZM13.3219 13.4335C13.2323 13.4588 13.0529 13.5701 13.012 13.6965C12.971 13.8228 13.0684 13.9643 13.2809 14.2272C13.4935 14.4901 13.8213 14.8743 14.0032 15.031C14.1851 15.1877 14.221 15.117 14.2594 14.9881C14.2978 14.8592 14.3387 14.6721 14.2952 14.5053C14.2517 14.3385 14.1236 14.1918 13.9622 14.0326C13.8009 13.8733 13.6062 13.7015 13.5089 13.5852C13.4116 13.4689 13.4116 13.4083 13.3219 13.4335ZM15.7015 11.6178C16.3212 11.6178 16.8235 12.1003 16.8235 12.6954C16.8235 13.2906 16.3212 13.773 15.7015 13.773C15.0819 13.773 14.5796 13.2906 14.5796 12.6954C14.5796 12.1003 15.0819 11.6178 15.7015 11.6178ZM15.6835 9.19189C16.1065 9.19189 16.4493 9.52126 16.4493 9.92751C16.4493 10.3338 16.1065 10.6631 15.6835 10.6631C15.2605 10.6631 14.9177 10.3338 14.9177 9.92751C14.9177 9.52126 15.2605 9.19189 15.6835 9.19189Z" fill="#E8F2F3"/>
<path fill-rule="evenodd" clip-rule="evenodd" d="M7.05078 24.4644C7.05078 24.1759 7.28778 23.942 7.58014 23.942H32.3646C32.657 23.942 32.894 24.1759 32.894 24.4644C32.894 24.7529 32.657 24.9868 32.3646 24.9868H7.58014C7.28778 24.9868 7.05078 24.7529 7.05078 24.4644Z" fill="#E8F2F3"/>
<path d="M204 17.3071C204 18.5871 203.698 19.6746 203.093 20.5696C202.498 21.455 201.689 22.1287 200.665 22.5906C199.651 23.0525 198.505 23.2835 197.227 23.2835C195.95 23.2835 194.799 23.0525 193.775 22.5906C192.751 22.1287 191.941 21.455 191.346 20.5696C190.752 19.6746 190.454 18.5871 190.454 17.3071C190.454 16.4698 190.615 15.7047 190.937 15.0118C191.268 14.3092 191.732 13.6981 192.327 13.1784C192.931 12.6587 193.643 12.2593 194.462 11.9803C195.291 11.6915 196.203 11.5472 197.198 11.5472C198.505 11.5472 199.67 11.7974 200.694 12.2978C201.718 12.7887 202.523 13.4671 203.108 14.3333C203.703 15.1994 204 16.1907 204 17.3071ZM201.279 17.2493C201.279 16.4698 201.108 15.7817 200.767 15.185C200.426 14.5787 199.948 14.1071 199.334 13.7703C198.719 13.4335 198.007 13.265 197.198 13.265C196.369 13.265 195.652 13.4335 195.047 13.7703C194.453 14.1071 193.989 14.5787 193.658 15.185C193.326 15.7817 193.16 16.4698 193.16 17.2493C193.16 18.0577 193.321 18.7507 193.643 19.3281C193.975 19.8959 194.443 20.3338 195.047 20.6418C195.662 20.9401 196.388 21.0893 197.227 21.0893C198.066 21.0893 198.787 20.9401 199.392 20.6418C199.997 20.3338 200.46 19.8959 200.782 19.3281C201.113 18.7507 201.279 18.0577 201.279 17.2493ZM203.503 7.4474C203.503 8.46753 203.23 9.38661 202.683 10.2046C202.137 11.0227 201.391 11.6675 200.445 12.139C199.499 12.6106 198.427 12.8464 197.227 12.8464C196.008 12.8464 194.921 12.6106 193.965 12.139C193.019 11.6675 192.278 11.0227 191.741 10.2046C191.205 9.38661 190.937 8.46753 190.937 7.4474C190.937 6.22517 191.205 5.18579 191.741 4.32926C192.288 3.47273 193.034 2.81831 193.98 2.36598C194.926 1.91366 196.003 1.6875 197.212 1.6875C198.431 1.6875 199.514 1.91366 200.46 2.36598C201.406 2.81831 202.147 3.47273 202.683 4.32926C203.23 5.18579 203.503 6.22517 203.503 7.4474ZM200.796 7.49071C200.796 6.78816 200.645 6.16742 200.343 5.62848C200.041 5.08955 199.621 4.6661 199.085 4.35813C198.549 4.04054 197.924 3.88175 197.212 3.88175C196.501 3.88175 195.876 4.03092 195.34 4.32926C194.813 4.61798 194.399 5.0318 194.097 5.57074C193.804 6.10968 193.658 6.74967 193.658 7.49071C193.658 8.2125 193.804 8.84286 194.097 9.3818C194.399 9.92074 194.818 10.3394 195.355 10.6377C195.891 10.9361 196.515 11.0852 197.227 11.0852C197.939 11.0852 198.558 10.9361 199.085 10.6377C199.621 10.3394 200.041 9.92074 200.343 9.3818C200.645 8.84286 200.796 8.2125 200.796 7.49071Z" fill="#24353F"/>
<path d="M177.669 11.1718H179.6C180.546 11.1718 181.326 11.0179 181.94 10.7099C182.565 10.3923 183.028 9.96405 183.33 9.42511C183.642 8.87655 183.798 8.26062 183.798 7.57732C183.798 6.76892 183.662 6.09043 183.389 5.54187C183.116 4.99331 182.706 4.57948 182.16 4.30039C181.614 4.02129 180.921 3.88175 180.083 3.88175C179.322 3.88175 178.649 4.03092 178.064 4.32926C177.488 4.61798 177.035 5.0318 176.703 5.57074C176.382 6.10968 176.221 6.74486 176.221 7.47627H173.514C173.514 6.40802 173.787 5.43601 174.334 4.56023C174.88 3.68446 175.645 2.98673 176.63 2.46704C177.625 1.94735 178.776 1.6875 180.083 1.6875C181.37 1.6875 182.496 1.91366 183.462 2.36598C184.427 2.80868 185.178 3.47273 185.715 4.35813C186.251 5.2339 186.519 6.32622 186.519 7.63507C186.519 8.16438 186.392 8.73219 186.139 9.3385C185.895 9.93518 185.51 10.4934 184.983 11.0131C184.466 11.5327 183.793 11.961 182.964 12.2978C182.135 12.6251 181.141 12.7887 179.98 12.7887H177.669V11.1718ZM177.669 13.3661V11.7637H179.98C181.336 11.7637 182.457 11.9225 183.345 12.2401C184.232 12.5577 184.929 12.9811 185.437 13.5105C185.953 14.0398 186.314 14.622 186.519 15.2572C186.734 15.8827 186.841 16.5083 186.841 17.1338C186.841 18.1155 186.67 18.9864 186.329 19.7467C185.997 20.507 185.524 21.1518 184.91 21.6811C184.305 22.2105 183.593 22.6098 182.774 22.8793C181.955 23.1488 181.063 23.2835 180.097 23.2835C179.171 23.2835 178.298 23.1536 177.479 22.8937C176.669 22.6339 175.952 22.2586 175.328 21.7678C174.704 21.2673 174.217 20.6562 173.865 19.9344C173.514 19.203 173.339 18.3705 173.339 17.437H176.045C176.045 18.1684 176.206 18.8084 176.528 19.357C176.859 19.9055 177.328 20.3338 177.932 20.6418C178.547 20.9401 179.268 21.0893 180.097 21.0893C180.926 21.0893 181.638 20.9497 182.233 20.6706C182.838 20.3819 183.301 19.9488 183.623 19.3714C183.954 18.794 184.12 18.0674 184.12 17.1916C184.12 16.3158 183.935 15.5988 183.564 15.0407C183.194 14.4728 182.667 14.0542 181.984 13.7847C181.311 13.5056 180.517 13.3661 179.6 13.3661H177.669Z" fill="#24353F"/>
<path d="M165.761 1.86072V22.9948H163.055V5.1954L157.599 7.15867V4.74789L165.337 1.86072H165.761Z" fill="#24353F"/>
<path d="M155.054 22.9948V25.189H141.64V22.9948H155.054Z" fill="#24353F"/>
<path d="M136.68 20.3241V12.2833C136.68 11.6674 136.553 11.1333 136.3 10.681C136.056 10.219 135.685 9.86292 135.188 9.6127C134.69 9.36248 134.076 9.23737 133.345 9.23737C132.662 9.23737 132.062 9.35285 131.545 9.58383C131.038 9.8148 130.638 10.118 130.346 10.4933C130.063 10.8686 129.922 11.2728 129.922 11.7059H127.215C127.215 11.1477 127.362 10.5943 127.654 10.0458C127.947 9.49721 128.366 9.00158 128.912 8.55888C129.468 8.10656 130.131 7.75047 130.902 7.49063C131.682 7.22116 132.55 7.08643 133.506 7.08643C134.656 7.08643 135.671 7.2789 136.548 7.66386C137.436 8.04882 138.128 8.63106 138.626 9.4106C139.133 10.1805 139.386 11.1477 139.386 12.3122V19.5879C139.386 20.1076 139.43 20.6609 139.518 21.248C139.615 21.835 139.757 22.3403 139.942 22.7638V22.9947H137.119C136.982 22.6868 136.875 22.2777 136.797 21.7677C136.719 21.248 136.68 20.7668 136.68 20.3241ZM137.148 13.5248L137.177 15.4015H134.442C133.671 15.4015 132.984 15.464 132.379 15.5891C131.775 15.7046 131.267 15.8827 130.858 16.1233C130.448 16.3639 130.136 16.667 129.922 17.0327C129.707 17.3888 129.6 17.8074 129.6 18.2886C129.6 18.7795 129.712 19.227 129.936 19.6312C130.161 20.0354 130.497 20.3578 130.946 20.5984C131.404 20.8293 131.965 20.9448 132.628 20.9448C133.457 20.9448 134.188 20.7716 134.822 20.4251C135.456 20.0787 135.958 19.6552 136.329 19.1548C136.709 18.6543 136.914 18.1683 136.943 17.6968L138.099 18.9816C138.031 19.3858 137.845 19.8333 137.543 20.3241C137.241 20.8149 136.836 21.2865 136.329 21.7388C135.832 22.1815 135.237 22.552 134.544 22.8504C133.862 23.1391 133.091 23.2834 132.233 23.2834C131.16 23.2834 130.219 23.0765 129.41 22.6627C128.61 22.2489 127.986 21.6955 127.537 21.0026C127.098 20.3 126.879 19.5157 126.879 18.6495C126.879 17.8123 127.045 17.076 127.376 16.4409C127.708 15.7961 128.186 15.2619 128.81 14.8385C129.434 14.4054 130.185 14.0782 131.063 13.8568C131.94 13.6355 132.92 13.5248 134.003 13.5248H137.148Z" fill="#24353F"/>
<path d="M114.884 0.821289V22.9947H112.163V0.821289H114.884ZM124.553 7.37516L117.649 14.6653L113.787 18.6207L113.567 15.7768L116.332 12.5143L121.247 7.37516H124.553ZM122.081 22.9947L116.435 15.5458L117.839 13.1639L125.27 22.9947H122.081Z" fill="#24353F"/>
<path d="M102.845 23.2834C101.743 23.2834 100.743 23.1006 99.8457 22.7349C98.9583 22.3595 98.1927 21.835 97.5491 21.1614C96.9152 20.4877 96.4275 19.6889 96.0862 18.765C95.7449 17.8411 95.5742 16.8306 95.5742 15.7335V15.1272C95.5742 13.8568 95.7644 12.726 96.1447 11.7348C96.5251 10.7339 97.0419 9.88698 97.6953 9.19406C98.3487 8.50114 99.0899 7.97664 99.9189 7.62055C100.748 7.26447 101.606 7.08643 102.493 7.08643C103.625 7.08643 104.6 7.2789 105.419 7.66386C106.248 8.04882 106.926 8.58775 107.453 9.28067C107.979 9.96397 108.369 10.7724 108.623 11.7059C108.876 12.6298 109.003 13.6403 109.003 14.7374V15.9356H97.1833V13.7558H106.297V13.5537C106.258 12.8608 106.112 12.1871 105.858 11.5327C105.614 10.8782 105.224 10.3393 104.688 9.91585C104.151 9.4924 103.42 9.28067 102.493 9.28067C101.879 9.28067 101.313 9.4106 100.797 9.67044C100.28 9.92066 99.836 10.296 99.4654 10.7964C99.0948 11.2969 98.8071 11.908 98.6023 12.6298C98.3975 13.3516 98.2951 14.184 98.2951 15.1272V15.7335C98.2951 16.4745 98.3975 17.1723 98.6023 17.8267C98.8169 18.4715 99.1241 19.0393 99.5239 19.5301C99.9335 20.0209 100.426 20.4059 101.001 20.685C101.587 20.9641 102.25 21.1036 102.991 21.1036C103.947 21.1036 104.756 20.9111 105.419 20.5262C106.082 20.1412 106.663 19.6264 107.16 18.9816L108.798 20.2663C108.457 20.7764 108.023 21.2624 107.496 21.7244C106.97 22.1863 106.321 22.5616 105.551 22.8504C104.79 23.1391 103.888 23.2834 102.845 23.2834Z" fill="#24353F"/>
<path d="M93.1026 7.37512V9.42501H84.5449V7.37512H93.1026ZM87.4414 3.57849H90.1476V19.1259C90.1476 19.6552 90.2305 20.0546 90.3963 20.3241C90.5621 20.5935 90.7766 20.7716 91.0399 20.8582C91.3033 20.9448 91.5861 20.9881 91.8884 20.9881C92.1127 20.9881 92.3468 20.9689 92.5906 20.9304C92.8441 20.8823 93.0343 20.8438 93.1611 20.8149L93.1757 22.9947C92.9611 23.0621 92.6783 23.1246 92.3272 23.1824C91.9859 23.2497 91.5714 23.2834 91.0838 23.2834C90.4207 23.2834 89.8112 23.1535 89.2553 22.8936C88.6994 22.6338 88.2557 22.2007 87.9241 21.5944C87.6023 20.9785 87.4414 20.1508 87.4414 19.1115V3.57849Z" fill="#24353F"/>
<path d="M68.6729 15.3582V15.0261C68.6729 13.9001 68.8386 12.856 69.1702 11.8936C69.5018 10.9215 69.9797 10.0795 70.6038 9.36729C71.228 8.6455 71.9838 8.08731 72.8712 7.69273C73.7587 7.28853 74.7534 7.08643 75.8554 7.08643C76.9672 7.08643 77.9668 7.28853 78.8542 7.69273C79.7515 8.08731 80.5121 8.6455 81.1363 9.36729C81.7702 10.0795 82.2529 10.9215 82.5845 11.8936C82.9161 12.856 83.0819 13.9001 83.0819 15.0261V15.3582C83.0819 16.4842 82.9161 17.5284 82.5845 18.4907C82.2529 19.4531 81.7702 20.2952 81.1363 21.017C80.5121 21.7292 79.7563 22.2874 78.8689 22.6916C77.9912 23.0862 76.9964 23.2834 75.8847 23.2834C74.7729 23.2834 73.7733 23.0862 72.8858 22.6916C71.9984 22.2874 71.2377 21.7292 70.6038 21.017C69.9797 20.2952 69.5018 19.4531 69.1702 18.4907C68.8386 17.5284 68.6729 16.4842 68.6729 15.3582ZM71.3791 15.0261V15.3582C71.3791 16.1377 71.4718 16.8739 71.6571 17.5668C71.8423 18.2501 72.1203 18.8564 72.4909 19.3858C72.8712 19.9151 73.3442 20.3337 73.9098 20.6417C74.4755 20.94 75.1337 21.0892 75.8847 21.0892C76.6258 21.0892 77.2744 20.94 77.8303 20.6417C78.3959 20.3337 78.864 19.9151 79.2346 19.3858C79.6052 18.8564 79.8831 18.2501 80.0684 17.5668C80.2635 16.8739 80.361 16.1377 80.361 15.3582V15.0261C80.361 14.2562 80.2635 13.5296 80.0684 12.8463C79.8831 12.1534 79.6003 11.5423 79.22 11.013C78.8494 10.474 78.3813 10.0506 77.8156 9.74262C77.2597 9.43466 76.6063 9.28067 75.8554 9.28067C75.1142 9.28067 74.4608 9.43466 73.8952 9.74262C73.3393 10.0506 72.8712 10.474 72.4909 11.013C72.1203 11.5423 71.8423 12.1534 71.6571 12.8463C71.4718 13.5296 71.3791 14.2562 71.3791 15.0261Z" fill="#24353F"/>
<path d="M55.2726 10.3778V29H52.5518V7.37514H55.0386L55.2726 10.3778ZM65.9368 15.055V15.3582C65.9368 16.4938 65.8002 17.5476 65.5272 18.5196C65.2541 19.482 64.8543 20.3193 64.3276 21.0314C63.8108 21.7436 63.172 22.297 62.4113 22.6916C61.6506 23.0861 60.7778 23.2834 59.7928 23.2834C58.7883 23.2834 57.9009 23.1198 57.1305 22.7926C56.36 22.4654 55.7066 21.989 55.1702 21.3635C54.6339 20.7379 54.2048 19.9873 53.8829 19.1115C53.5709 18.2357 53.3563 17.2493 53.2393 16.1521V14.5353C53.3563 13.3805 53.5757 12.3459 53.8976 11.4316C54.2194 10.5173 54.6436 9.73781 55.1702 9.09301C55.7066 8.43858 56.3552 7.94295 57.1158 7.60612C57.8765 7.25966 58.7542 7.08643 59.7489 7.08643C60.7437 7.08643 61.6263 7.2789 62.3967 7.66386C63.1671 8.03919 63.8157 8.57813 64.3423 9.28067C64.8689 9.98322 65.2639 10.8253 65.5272 11.8069C65.8002 12.779 65.9368 13.8616 65.9368 15.055ZM63.2159 15.3582V15.055C63.2159 14.2755 63.133 13.5441 62.9672 12.8608C62.8014 12.1678 62.543 11.5615 62.1919 11.0418C61.8506 10.5125 61.4117 10.0987 60.8753 9.80036C60.339 9.4924 59.7002 9.33842 58.959 9.33842C58.2764 9.33842 57.6815 9.4539 57.1743 9.68488C56.677 9.91585 56.2528 10.2286 55.9017 10.6232C55.5506 11.0082 55.2629 11.4509 55.0386 11.9513C54.824 12.4421 54.6631 12.9522 54.5559 13.4815V17.2204C54.7509 17.8941 55.024 18.5292 55.375 19.1259C55.7261 19.713 56.1942 20.1894 56.7794 20.5551C57.3645 20.9111 58.1008 21.0892 58.9883 21.0892C59.7197 21.0892 60.3487 20.94 60.8753 20.6417C61.4117 20.3337 61.8506 19.9151 62.1919 19.3858C62.543 18.8564 62.8014 18.2501 62.9672 17.5668C63.133 16.8739 63.2159 16.1377 63.2159 15.3582Z" fill="#24353F"/>
<path d="M47.8418 1.9762V22.9948H45.0186V1.9762H47.8418Z" fill="#24353F"/>
</svg>
