<svg width="40" height="29" viewBox="0 0 40 29" fill="none" xmlns="http://www.w3.org/2000/svg">
<path d="M3.62301 25.3728H7.58037V14.293L19.9726 5.91002L32.3649 14.293V25.3728H36.3222V27.5688H3.62301V25.3728ZM19.9726 1.43066L25.3475 5.06701V1.43066H32.1769V9.68733L39.4159 14.5849L37.2994 17.6314L19.9726 5.91002L2.64581 17.6314L0.529297 14.5849L19.9726 1.43066Z" fill="#24353F"/>
<path fill-rule="evenodd" clip-rule="evenodd" d="M19.6733 1.0001C19.8537 0.87806 20.0916 0.878059 20.272 1.0001L24.8182 4.07581V1.43096C24.8182 1.14245 25.0552 0.908569 25.3476 0.908569H32.1769C32.4693 0.908569 32.7063 1.14245 32.7063 1.43096V9.4124L39.7153 14.1543C39.8311 14.2326 39.9106 14.3532 39.9364 14.4894C39.9621 14.6255 39.932 14.7663 39.8526 14.8805L37.7361 17.9271C37.5708 18.1651 37.2413 18.2257 37.0002 18.0626L32.8943 15.285V24.8508H36.3223C36.6147 24.8508 36.8517 25.0846 36.8517 25.3731V27.5691C36.8517 27.8576 36.6147 28.0915 36.3223 28.0915H3.62307C3.33072 28.0915 3.09372 27.8576 3.09372 27.5691V25.3731C3.09372 25.0846 3.33072 24.8508 3.62307 24.8508H7.05108V15.285L2.94518 18.0626C2.70405 18.2257 2.37458 18.1651 2.20927 17.9271L0.0927546 14.8805C0.0133685 14.7663 -0.0167665 14.6256 0.00897889 14.4894C0.0347243 14.3532 0.114241 14.2326 0.230037 14.1543L19.6733 1.0001ZM7.28113 13.8625C7.27736 13.865 7.27362 13.8676 7.26993 13.8702L2.78317 16.9055L1.26529 14.7206L19.9727 2.06432L25.0483 5.49817C25.2103 5.60779 25.4205 5.61984 25.5944 5.52947C25.7682 5.4391 25.877 5.26118 25.877 5.06731V1.95335H31.6476V9.68763C31.6476 9.85989 31.7336 10.0211 31.8776 10.1185L38.6801 14.7206L37.1622 16.9055L32.6758 13.8705C32.672 13.8678 32.6681 13.8651 32.6642 13.8625L20.272 5.47944C20.0916 5.35742 19.8537 5.35742 19.6733 5.47944L7.28113 13.8625ZM8.10979 14.5688V25.3731C8.10979 25.6617 7.87279 25.8955 7.58044 25.8955H4.15243V27.0467H35.7929V25.8955H32.3649C32.0726 25.8955 31.8356 25.6617 31.8356 25.3731V14.5688L19.9727 6.54366L8.10979 14.5688Z" fill="#24353F"/>
<path fill-rule="evenodd" clip-rule="evenodd" d="M23.3739 14.8653C23.3482 14.8757 23.3219 14.8851 23.295 14.8933C23.325 14.9333 23.3221 14.9814 23.3272 15.017C23.3349 15.0701 23.3605 15.0953 23.4656 15.1333C23.5707 15.1712 23.755 15.2217 23.9624 15.3481C24.1699 15.4745 24.4005 15.6767 24.8129 16.2556C25.2252 16.8344 25.8196 17.7899 26.1423 18.3106C26.465 18.8314 26.5162 18.9173 26.5675 18.9603C26.6187 19.0033 26.6699 19.0033 26.7673 18.9376C26.8647 18.8718 27.0081 18.7404 27.2283 18.6469C27.4487 18.5533 27.7457 18.4978 27.9148 18.4624C28.0839 18.4269 28.1249 18.4117 28.1453 18.3587C28.1647 18.3086 28.1658 18.2247 28.1852 18.1687C27.8762 18.1088 27.6434 17.8466 27.6434 17.5321C27.6434 17.1735 27.9462 16.8827 28.3196 16.8827C28.3634 16.8827 28.4061 16.8867 28.4476 16.8944C28.5023 16.7682 28.5591 16.6419 28.7027 16.5086C28.8498 16.3718 29.088 16.2277 29.2839 16.2733C29.4799 16.3188 29.6337 16.5538 29.6694 16.7725C29.7054 16.9911 29.6233 17.1933 29.5888 17.3286C29.5543 17.4638 29.567 17.5321 29.6208 17.5625C29.6746 17.5928 29.7693 17.5852 29.8282 17.5535C29.8872 17.522 29.9102 17.4663 29.9012 17.4904C29.8923 17.5144 29.8514 17.618 29.7604 17.6888C29.6695 17.7596 29.5286 17.7974 29.4249 17.7444C29.3211 17.6913 29.2545 17.5472 29.2148 17.4058C29.1751 17.2642 29.1623 17.1251 29.1136 17.0442C29.0649 16.9633 28.9804 16.9406 28.9065 16.9612C28.8524 16.9762 28.8041 17.0146 28.7524 17.0331C28.9011 17.1522 28.9958 17.3315 28.9958 17.5321C28.9958 17.8669 28.732 18.1424 28.3931 18.1777L28.3938 18.1793C28.4118 18.2247 28.4118 18.2803 28.4195 18.3284C28.4271 18.3764 28.4425 18.4168 28.5065 18.4446C28.5706 18.4724 28.6833 18.4876 28.8702 18.6342C29.0573 18.7808 29.3185 19.0589 29.5542 19.3142C29.7898 19.5695 29.9999 19.802 30.1971 19.9688C30.3944 20.1356 30.5787 20.2368 30.6377 20.3126C30.6966 20.3885 30.63 20.439 30.5044 20.4618C30.3789 20.4845 30.1945 20.4795 29.9922 20.3506C29.7898 20.2216 29.5695 19.9688 29.4029 19.8096C29.2365 19.6503 29.1239 19.5846 29.0496 19.5897C28.9752 19.5947 28.9395 19.6706 28.9317 19.7565C28.924 19.8424 28.9445 19.9385 29.1345 20.3126C29.3246 20.6867 29.6843 21.3389 30.0438 21.991C29.6725 21.991 29.301 21.991 28.9296 21.991C28.9014 23.1184 28.8733 24.2458 28.8451 25.3732C28.6466 25.3732 28.4479 25.3732 28.2493 25.3732C28.119 24.2458 27.9887 23.1184 27.8585 21.991C27.4996 21.991 27.1409 21.991 26.782 21.991C27.0794 21.0709 27.3767 20.1509 27.5253 19.6579C27.674 19.165 27.674 19.0993 27.6151 19.0918C27.5562 19.0841 27.4384 19.1347 27.2642 19.2332C27.0901 19.3318 26.8594 19.4785 26.693 19.5568C26.5265 19.6352 26.4241 19.6453 26.2729 19.5113C26.1218 19.3774 25.922 19.0992 25.5813 18.657C25.2406 18.2146 24.7592 17.6079 24.5004 17.2945C24.2417 16.981 24.2058 16.9608 24.1648 17.2919C24.1238 17.6231 24.0777 18.3056 24.0931 18.7378C24.1084 19.1701 24.1854 19.352 24.3569 19.7969C24.5286 20.2418 24.7949 20.9496 25.0614 21.6574C24.692 21.656 24.3226 21.6546 23.9532 21.6534C23.9034 22.8933 23.8534 24.1332 23.8036 25.3732C23.4617 25.3732 23.1197 25.3732 22.7778 25.3732C22.5942 24.1332 22.4104 22.8933 22.2268 21.6534C21.938 21.6534 21.6492 21.6534 21.3604 21.6534C21.4722 20.7498 21.5839 19.8461 21.6448 19.086C21.7058 18.3258 21.7161 17.709 21.6982 17.4108C21.6803 17.1125 21.6341 17.1327 21.3011 17.5675C20.9682 18.0023 20.3483 18.8516 19.9871 19.2914C19.6259 19.7313 19.5235 19.7616 19.4082 19.7566C19.293 19.7515 19.1649 19.7111 18.8343 19.3445C18.504 18.978 17.9712 18.2854 17.7048 18.0023C17.4384 17.7191 17.4384 17.8456 17.4717 18.4118C17.505 18.978 17.5716 19.984 17.6772 21.2175C17.7827 22.4511 17.9272 23.9122 18.0716 25.3732C17.6946 25.3732 17.3177 25.3732 16.9407 25.3732C16.6967 24.1194 16.4529 22.8657 16.2089 21.6119C15.9733 22.8657 15.7376 24.1194 15.5019 25.3732C15.1075 25.3732 14.713 25.3732 14.3185 25.3732C14.3954 24.3621 14.4722 23.351 14.5004 22.5067C14.5286 21.6624 14.5081 20.985 14.462 20.1685C14.4159 19.352 14.3442 18.3966 14.275 17.8911C14.2059 17.3855 14.1393 17.3298 13.7883 16.9659C13.4374 16.6019 12.8022 15.9295 12.4589 15.4669C12.1157 15.0043 12.0645 14.7516 12.0978 14.5393C12.1311 14.3269 12.2489 14.155 12.5229 13.9503C12.797 13.7455 13.2274 13.5079 13.527 13.245C13.8267 12.9822 13.9958 12.6939 14.175 12.4355C14.3542 12.1769 14.5436 11.9479 14.7383 11.8139C14.933 11.68 15.1329 11.6411 15.4352 11.6089C15.7375 11.5767 16.1424 11.5515 16.4496 11.5717C16.7571 11.5919 16.9671 11.6576 17.1746 11.9382C17.3821 12.2188 17.587 12.7143 17.6791 13.0884C17.7714 13.4624 17.7509 13.7152 17.6305 14.0185C17.5101 14.3219 17.2898 14.6757 17.1797 14.8704C17.0695 15.065 17.0695 15.1004 17.3513 15.5175C17.6331 15.9345 18.1966 16.7334 18.6013 17.302C19.0061 17.8708 19.2519 18.2096 19.3877 18.3688C19.5235 18.528 19.5491 18.5078 19.859 18.02C20.1689 17.5321 20.7632 16.5767 21.1782 16.0206C21.5931 15.4645 21.8288 15.3077 22.0516 15.2167C22.2744 15.1256 22.4846 15.1004 22.5896 15.0575C22.6758 15.0221 22.6913 14.9749 22.6911 14.934C22.4297 14.9563 22.1919 14.9765 22.127 14.9929C21.972 15.032 21.7568 15.0498 21.6121 15.0233C21.4674 14.9967 21.3932 14.9259 21.3816 14.9044C21.3701 14.8829 21.4213 14.9108 21.5391 14.8893C21.657 14.8678 21.8414 14.797 21.8811 14.615C21.9208 14.433 21.8158 14.1399 21.8401 13.8226C21.8645 13.5054 22.0181 13.1641 22.2102 12.9935C22.4023 12.8228 22.6329 12.8228 22.77 12.8456C22.907 12.8683 22.9506 12.9139 22.9941 12.9593C23.0377 12.9139 23.0812 12.8683 23.2183 12.8456C23.3553 12.8228 23.5859 12.8228 23.778 12.9935C23.9701 13.1641 24.1238 13.5054 24.148 13.8226C24.1724 14.1399 24.0674 14.433 24.1071 14.615C24.1468 14.797 24.3313 14.8678 24.4491 14.8893C24.5669 14.9108 24.6182 14.8829 24.6066 14.9044C24.5951 14.9259 24.5208 14.9967 24.3761 15.0233C24.2313 15.0498 24.0162 15.032 23.8612 14.9929C23.7062 14.9537 23.6114 14.893 23.5167 14.8324C23.4994 14.8434 23.4479 14.8544 23.3739 14.8653ZM13.3222 14.3421C13.2326 14.3674 13.0532 14.4786 13.0122 14.605C12.9712 14.7314 13.0686 14.8729 13.2812 15.1358C13.4938 15.3987 13.8216 15.7828 14.0035 15.9396C14.1853 16.0963 14.2212 16.0256 14.2597 15.8966C14.2981 15.7677 14.339 15.5806 14.2954 15.4138C14.252 15.247 14.1239 15.1004 13.9625 14.9411C13.8011 14.7819 13.6065 14.61 13.5092 14.4938C13.4118 14.3775 13.4118 14.3168 13.3222 14.3421ZM15.7017 12.5263C16.3215 12.5263 16.8237 13.0089 16.8237 13.604C16.8237 14.1991 16.3215 14.6816 15.7017 14.6816C15.0822 14.6816 14.5799 14.1991 14.5799 13.604C14.5799 13.0089 15.0822 12.5263 15.7017 12.5263ZM15.6837 10.1005C16.1067 10.1005 16.4496 10.4298 16.4496 10.8361C16.4496 11.2423 16.1067 11.5717 15.6837 11.5717C15.2608 11.5717 14.9179 11.2423 14.9179 10.8361C14.9179 10.4298 15.2608 10.1005 15.6837 10.1005Z" fill="#E8F2F3"/>
<path fill-rule="evenodd" clip-rule="evenodd" d="M7.05103 25.373C7.05103 25.0845 7.28803 24.8506 7.58038 24.8506H32.3649C32.6572 24.8506 32.8942 25.0845 32.8942 25.373C32.8942 25.6615 32.6572 25.8954 32.3649 25.8954H7.58038C7.28803 25.8954 7.05103 25.6615 7.05103 25.373Z" fill="#E8F2F3"/>
</svg>
