<svg width="128" height="127" viewBox="0 0 128 127" fill="none" xmlns="http://www.w3.org/2000/svg">
<path d="M32.4386 75.7311H22.4588C15.6392 85.2702 2 104.697 2 106.09V125.5H97.8068M32.4386 75.7311L39.674 63.0401M32.4386 75.7311V83.6942M32.4386 96.3852L37.9276 101.113M32.4386 96.3852L25.2032 103.851H19.7143M32.4386 96.3852V83.6942M39.674 63.0401H47.4085M39.674 63.0401V38.1556M55.1429 63.0401L61.5644 79.7126M55.1429 63.0401H47.4085M55.1429 63.0401V38.1556M97.8068 125.5L83.336 108.579L70.8612 103.851L61.5644 79.7126M97.8068 125.5H126V110.32L119.763 90.1641L107.787 83.6942L97.8068 55.8922M61.5644 79.7126L70.8612 43.3814H82.0885M97.8068 55.8922L93.3159 43.3814H82.0885M97.8068 55.8922H90.3219L86.5795 61.0493M86.5795 61.0493L90.3219 66.7727M86.5795 61.0493L83.336 66.7727H77.0986M82.0885 43.3814V26.9577M82.0885 26.9577V8.79202H107.787L97.8068 17.5016L107.787 26.9577H82.0885ZM47.4085 63.0401V46.8652M39.674 38.1556H55.1429M39.674 38.1556V32.4322L25.2032 17.9993L31.4406 11.7782L40.672 20.9854M55.1429 38.1556V32.4322L70.1127 17.5016L64.3742 11.7782L55.1429 20.9854M18.9658 42.386H13.4769M21.4608 49.8513L17.7183 53.8328M32.4386 83.6942L28.4467 86.4315M21.4608 35.4184C18.2672 31.835 16.9698 30.6074 16.7203 30.4415L21.4608 35.4184ZM47.4085 18.7458C57.3883 12.7736 54.228 4.64461 51.8994 2.57091C49.9034 1.57553 45.1131 0.381082 41.9195 3.56629C37.9276 7.5478 40.672 16.2574 47.4085 18.7458Z" stroke="black" stroke-width="3"/>
</svg>
