<svg width="110" height="76" viewBox="0 0 110 76" fill="none" xmlns="http://www.w3.org/2000/svg">
<path fill-rule="evenodd" clip-rule="evenodd" d="M54.4344 0.175215C54.7752 -0.0584041 55.2246 -0.0584049 55.5653 0.175212L68.9278 9.33598V1C68.9278 0.447715 69.3755 0 69.9278 0H88.8949C89.4471 0 89.8949 0.447715 89.8949 1V23.7103L109.565 37.1958C109.784 37.3457 109.934 37.5765 109.983 37.8372C110.032 38.0979 109.975 38.3673 109.825 38.586L103.947 47.1602C103.634 47.6157 103.012 47.7318 102.556 47.4195L90.417 39.0978V67.3818H100.408C100.96 67.3818 101.408 67.8295 101.408 68.3818V74.5621C101.408 75.1143 100.96 75.5621 100.408 75.5621H9.59218C9.0399 75.5621 8.59218 75.1143 8.59218 74.5621V68.3818C8.59218 67.8295 9.0399 67.3818 9.59218 67.3818H19.583V39.0978L7.44362 47.4195C6.98811 47.7318 6.3657 47.6157 6.05342 47.1602L0.175221 38.586C0.0252541 38.3673 -0.0316733 38.0979 0.0169618 37.8372C0.065597 37.5765 0.215811 37.3457 0.434558 37.1958L54.4344 0.175215ZM19.992 36.3926L7.13756 45.2045L2.39024 38.2799L54.9999 2.21244L69.3623 12.0588C69.6684 12.2686 70.0656 12.2917 70.3939 12.1187C70.7222 11.9457 70.9278 11.6051 70.9278 11.234V2H87.8949V24.2372C87.8949 24.567 88.0574 24.8755 88.3294 25.062L107.61 38.2799L102.862 45.2045L90.0089 36.3932C90.0002 36.3868 89.9914 36.3806 89.9824 36.3745L55.5653 12.7817C55.2245 12.5481 54.7752 12.5481 54.4345 12.7817L20.0176 36.3745C20.0089 36.3804 20.0004 36.3864 19.992 36.3926ZM21.583 37.7268L54.9999 14.8189L88.417 37.7268V68.3818C88.417 68.9341 88.8647 69.3818 89.417 69.3818H99.4078V73.5621H10.5922V69.3818H20.583C21.1353 69.3818 21.583 68.9341 21.583 68.3818V37.7268Z" fill="white" fill-opacity="0.5"/>
<path fill-rule="evenodd" clip-rule="evenodd" d="M68.5444 39.5362C68.473 39.5654 68.3999 39.5918 68.3252 39.615C68.4085 39.7275 68.4005 39.8629 68.4148 39.9631C68.4362 40.1125 68.5073 40.1836 68.799 40.2904C69.0908 40.3971 69.6028 40.5392 70.1789 40.8949C70.7552 41.2507 71.3955 41.8197 72.5408 43.449C73.6861 45.078 75.3367 47.7671 76.2331 49.2325C77.1293 50.6981 77.2716 50.94 77.4139 51.0609C77.5562 51.1818 77.6985 51.1818 77.9688 50.997C78.2393 50.8118 78.6376 50.4421 79.2493 50.1788C79.8613 49.9156 80.6863 49.7592 81.1557 49.6596C81.6254 49.5598 81.7393 49.5171 81.7961 49.3679C81.85 49.2268 81.853 48.9906 81.9069 48.833C81.0485 48.6644 80.4021 47.9267 80.4021 47.0415C80.4021 46.0322 81.243 45.2139 82.2801 45.2139C82.4016 45.2139 82.5204 45.2252 82.6356 45.2468C82.7876 44.8916 82.9452 44.5362 83.344 44.1609C83.7527 43.7761 84.4141 43.3706 84.9584 43.4987C85.5027 43.6267 85.9296 44.2883 86.029 44.9038C86.1288 45.519 85.901 46.0881 85.805 46.4687C85.7091 46.8492 85.7444 47.0415 85.894 47.1269C86.0433 47.2122 86.3064 47.1908 86.47 47.1018C86.6339 47.013 86.6978 46.8564 86.6727 46.9243C86.648 46.9917 86.5343 47.2833 86.2817 47.4825C86.0292 47.6816 85.6378 47.7883 85.3498 47.6391C85.0617 47.4896 84.8767 47.084 84.7663 46.6859C84.6561 46.2874 84.6206 45.896 84.4854 45.6684C84.3502 45.4406 84.1154 45.3767 83.9101 45.4348C83.76 45.4771 83.6257 45.5851 83.482 45.6372C83.895 45.9722 84.1581 46.477 84.1581 47.0415C84.1581 47.9837 83.4254 48.7591 82.4843 48.8583L82.4861 48.8628C82.5361 48.9908 82.5361 49.1472 82.5574 49.2825C82.5786 49.4175 82.6215 49.5314 82.7991 49.6096C82.9771 49.6878 83.2901 49.7306 83.8094 50.1432C84.3288 50.5558 85.0544 51.3384 85.7089 52.057C86.3634 52.7754 86.9469 53.4297 87.4946 53.8993C88.0424 54.3688 88.5544 54.6534 88.7181 54.8669C88.8818 55.0803 88.6967 55.2226 88.348 55.2867C87.9995 55.3506 87.4873 55.3365 86.9254 54.9737C86.3634 54.6107 85.7515 53.8993 85.2889 53.4513C84.8267 53.003 84.5138 52.8179 84.3074 52.8322C84.101 52.8464 84.0016 53.06 83.9801 53.3017C83.9587 53.5436 84.0158 53.8141 84.5434 54.8669C85.0713 55.9196 86.0702 57.7551 87.0688 59.5905C86.0374 59.5905 85.0058 59.5905 83.9742 59.5905C83.896 62.7634 83.8178 65.9362 83.7396 69.1091C83.1882 69.1091 82.6364 69.1091 82.0848 69.1091C81.723 65.9362 81.3612 62.7634 80.9993 59.5905C80.0028 59.5905 79.0065 59.5905 78.0098 59.5905C78.8356 57.001 79.6614 54.4117 80.0742 53.0243C80.4872 51.6372 80.4872 51.4521 80.3235 51.431C80.16 51.4094 79.8327 51.5517 79.3489 51.8291C78.8653 52.1066 78.2248 52.5192 77.7624 52.7397C77.3 52.9602 77.0158 52.9887 76.5959 52.6117C76.1763 52.2348 75.6214 51.4519 74.675 50.2073C73.7289 48.9622 72.3917 47.2547 71.6731 46.3729C70.9545 45.4906 70.8549 45.4338 70.7411 46.3656C70.6272 47.2977 70.4992 49.2184 70.5417 50.4348C70.5844 51.6515 70.7981 52.1635 71.2746 53.4156C71.7513 54.6675 72.491 56.6596 73.231 58.6514C72.2051 58.6477 71.1792 58.6438 70.1532 58.6403C70.0148 62.1299 69.8761 65.6195 69.7377 69.1091C68.7882 69.1091 67.8385 69.1091 66.8888 69.1091C66.3788 65.6195 65.8686 62.1299 65.3586 58.6403C64.5565 58.6403 63.7544 58.6403 62.9523 58.6403C63.2628 56.0972 63.5729 53.554 63.7423 51.4147C63.9116 49.2752 63.9401 47.5393 63.8905 46.7C63.8407 45.8605 63.7125 45.9175 62.7877 47.1412C61.8629 48.3647 60.1413 50.7551 59.1382 51.9929C58.1352 53.2307 57.8505 53.316 57.5305 53.3019C57.2104 53.2876 56.8546 53.1739 55.9367 52.1423C55.0192 51.1107 53.5395 49.1615 52.7997 48.3647C52.0598 47.5678 52.0598 47.9237 52.1523 49.5173C52.2448 51.1107 52.4296 53.9421 52.7229 57.4136C53.0159 60.8852 53.4171 64.9973 53.8184 69.1091C52.7713 69.1091 51.7244 69.1091 50.6775 69.1091C49.9999 65.5805 49.3227 62.0521 48.645 58.5234C47.9906 62.0521 47.3361 65.5805 46.6816 69.1091C45.5861 69.1091 44.4904 69.1091 43.3949 69.1091C43.6083 66.2636 43.8218 63.4179 43.9 61.0418C43.9784 58.6658 43.9213 56.7591 43.7934 54.4613C43.6654 52.1635 43.4662 49.4746 43.2741 48.0519C43.082 46.6289 42.897 46.4722 41.9222 45.4481C40.9476 44.4235 39.1836 42.5312 38.2302 41.2293C37.2769 39.9274 37.1346 39.2163 37.2272 38.6186C37.3197 38.021 37.6468 37.5372 38.4079 36.9612C39.1692 36.3847 40.3645 35.7159 41.1966 34.9762C42.0289 34.2364 42.4985 33.4251 42.9964 32.6977C43.494 31.9699 44.0199 31.3254 44.5607 30.9485C45.1013 30.5716 45.6567 30.462 46.4962 30.3714C47.3359 30.2809 48.4602 30.2099 49.3136 30.2668C50.1675 30.3236 50.7508 30.5087 51.3271 31.2982C51.9034 32.0879 52.4724 33.4823 52.7283 34.5353C52.9845 35.5879 52.9275 36.2994 52.5933 37.1531C52.2589 38.0069 51.647 39.0026 51.3412 39.5505C51.0352 40.0981 51.0352 40.1979 51.8177 41.3716C52.6004 42.5453 54.1653 44.7936 55.2895 46.394C56.4136 47.9947 57.0963 48.9481 57.4734 49.3964C57.8505 49.8444 57.9217 49.7876 58.7824 48.4145C59.6433 47.0415 61.2937 44.3526 62.4462 42.7876C63.5986 41.2225 64.2531 40.7812 64.8721 40.5251C65.4909 40.2689 66.0744 40.1979 66.3661 40.077C66.6056 39.9776 66.6485 39.8447 66.6481 39.7294C65.9221 39.7924 65.2615 39.8492 65.0814 39.8953C64.651 40.0054 64.0533 40.0554 63.6513 39.9807C63.2495 39.906 63.0433 39.7067 63.0111 39.6463C62.9792 39.5858 63.1215 39.6642 63.4486 39.6038C63.776 39.5432 64.2882 39.3441 64.3983 38.8317C64.5087 38.3195 64.2172 37.4945 64.2846 36.6017C64.3523 35.7088 64.779 34.7484 65.3125 34.2684C65.8461 33.7879 66.4864 33.7879 66.8671 33.852C67.2476 33.9159 67.3687 34.0441 67.4896 34.1721C67.6106 34.0441 67.7315 33.9159 68.1121 33.852C68.4928 33.7879 69.1332 33.7879 69.6667 34.2684C70.2003 34.7484 70.627 35.7088 70.6944 36.6017C70.762 37.4945 70.4704 38.3195 70.5807 38.8317C70.6909 39.3441 71.2033 39.5432 71.5306 39.6038C71.8577 39.6642 72.0001 39.5858 71.9681 39.6463C71.936 39.7067 71.7297 39.906 71.3279 39.9807C70.9257 40.0554 70.3282 40.0054 69.8978 39.8953C69.4674 39.7849 69.2041 39.6142 68.9409 39.4435C68.8931 39.4744 68.7498 39.5056 68.5444 39.5362ZM40.6278 38.0637C40.3788 38.1349 39.8806 38.4479 39.7669 38.8037C39.653 39.1592 39.9235 39.5575 40.5139 40.2975C41.1043 41.0372 42.0147 42.1184 42.5199 42.5597C43.025 43.0007 43.1246 42.8015 43.2314 42.4387C43.338 42.0759 43.4517 41.5494 43.3308 41.08C43.21 40.6105 42.8543 40.1977 42.406 39.7496C41.9579 39.3014 41.4173 38.8178 41.147 38.4906C40.8767 38.1633 40.8767 37.9926 40.6278 38.0637ZM47.2365 32.9535C48.9577 32.9535 50.3525 34.3115 50.3525 35.9864C50.3525 37.6613 48.9577 39.0191 47.2365 39.0191C45.5157 39.0191 44.1207 37.6613 44.1207 35.9864C44.1207 34.3115 45.5157 32.9535 47.2365 32.9535ZM47.1865 26.1262C48.3612 26.1262 49.3135 27.0532 49.3135 28.1965C49.3135 29.3398 48.3612 30.2668 47.1865 30.2668C46.0118 30.2668 45.0596 29.3398 45.0596 28.1965C45.0596 27.0532 46.0118 26.1262 47.1865 26.1262Z" fill="white" fill-opacity="0.5"/>
<path fill-rule="evenodd" clip-rule="evenodd" d="M23.6807 69.1091C23.6807 68.5568 24.1284 68.1091 24.6807 68.1091H93.5147C94.067 68.1091 94.5147 68.5568 94.5147 69.1091C94.5147 69.6614 94.067 70.1091 93.5147 70.1091H24.6807C24.1284 70.1091 23.6807 69.6614 23.6807 69.1091Z" fill="white" fill-opacity="0.5"/>
</svg>
