<svg width="1920" height="800" viewBox="0 0 1920 800" fill="none" xmlns="http://www.w3.org/2000/svg">
<path d="M792.629 737.735H683.876V429.188L343.325 195.74L2.7713 429.188V737.735H-105.981V798.888H792.629V737.735ZM343.325 71L195.615 172.264V71H7.93823V300.929L-191 437.314L-132.836 522.154L343.325 195.74L819.483 522.154L877.647 437.314L343.325 71Z" fill="white" fill-opacity="0.4"/>
<path d="M1060.4 732.465H1179.87V393.499L1554 137.037L1928.12 393.499V732.465H2047.6V799.647H1060.4V732.465ZM1554 0L1716.27 111.247V0H1922.45V252.597L2141 402.427L2077.1 495.631L1554 137.037L1030.9 495.631L966.999 402.427L1554 0Z" fill="#7F8D96" fill-opacity="0.2"/>
</svg>
