<svg width="214" height="146" viewBox="0 0 214 146" fill="none" xmlns="http://www.w3.org/2000/svg">
<path d="M17.0252 133.516H38.8033V71.7282L107 24.9795L175.197 71.7282V133.516H196.975V145.762H17.0252V133.516ZM107 0L136.579 20.2784V0H174.162V46.0441L214 73.3555L202.352 90.3451L107 24.9795L11.6475 90.3451L0 73.3555L107 0Z" fill="white" fill-opacity="0.5"/>
<path fill-rule="evenodd" clip-rule="evenodd" d="M117.837 76.3587C117.696 76.4166 117.551 76.469 117.403 76.5148C117.568 76.7378 117.552 77.0061 117.581 77.2046C117.623 77.5006 117.764 77.6416 118.342 77.8532C118.92 78.0645 119.935 78.3461 121.076 79.051C122.218 79.756 123.487 80.8835 125.756 84.1118C128.026 87.3397 131.296 92.6681 133.073 95.5718C134.848 98.4758 135.13 98.9551 135.412 99.1947C135.694 99.4343 135.976 99.4343 136.512 99.0681C137.048 98.701 137.837 97.9685 139.049 97.4469C140.262 96.9253 141.896 96.6154 142.827 96.4181C143.757 96.2204 143.983 96.1357 144.096 95.8401C144.202 95.5605 144.208 95.0925 144.315 94.7802C142.614 94.4462 141.333 92.9843 141.333 91.2303C141.333 89.2304 143 87.6089 145.055 87.6089C145.295 87.6089 145.531 87.6314 145.759 87.6741C146.06 86.9704 146.372 86.2662 147.163 85.5224C147.973 84.76 149.283 83.9564 150.362 84.2104C151.44 84.4641 152.286 85.7749 152.483 86.9945C152.681 88.2136 152.229 89.3411 152.039 90.0954C151.849 90.8493 151.919 91.2303 152.215 91.3996C152.511 91.5686 153.033 91.5262 153.357 91.3499C153.682 91.174 153.808 90.8636 153.758 90.998C153.709 91.1316 153.484 91.7096 152.984 92.1042C152.483 92.4988 151.708 92.7101 151.137 92.4145C150.566 92.1182 150.2 91.3146 149.981 90.5257C149.763 89.7361 149.692 88.9605 149.424 88.5096C149.156 88.0583 148.691 87.9317 148.284 88.0466C147.987 88.1305 147.721 88.3445 147.436 88.4478C148.255 89.1116 148.776 90.1117 148.776 91.2303C148.776 93.0973 147.324 94.6338 145.459 94.8303L145.463 94.8392C145.562 95.0929 145.562 95.4028 145.604 95.6708C145.646 95.9384 145.731 96.164 146.083 96.319C146.436 96.474 147.056 96.5587 148.085 97.3762C149.114 98.1938 150.552 99.7446 151.849 101.168C153.146 102.592 154.302 103.888 155.387 104.819C156.472 105.749 157.487 106.313 157.811 106.736C158.136 107.159 157.769 107.441 157.078 107.568C156.387 107.695 155.373 107.667 154.259 106.948C153.146 106.229 151.933 104.819 151.016 103.931C150.101 103.043 149.481 102.676 149.072 102.705C148.663 102.733 148.466 103.156 148.423 103.635C148.381 104.114 148.494 104.65 149.539 106.736C150.585 108.822 152.564 112.459 154.543 116.096C152.5 116.096 150.456 116.096 148.411 116.096C148.256 122.383 148.101 128.67 147.946 134.957C146.854 134.957 145.761 134.957 144.668 134.957C143.951 128.67 143.234 122.383 142.517 116.096C140.542 116.096 138.568 116.096 136.593 116.096C138.229 110.965 139.866 105.834 140.684 103.085C141.502 100.337 141.502 99.9699 141.178 99.928C140.854 99.8852 140.205 100.167 139.246 100.717C138.288 101.267 137.019 102.084 136.103 102.521C135.187 102.958 134.623 103.015 133.791 102.268C132.96 101.521 131.86 99.9695 129.985 97.5032C128.11 95.0362 125.461 91.6529 124.037 89.9055C122.613 88.1573 122.416 88.0447 122.19 89.8911C121.965 91.7379 121.711 95.5438 121.795 97.9542C121.88 100.365 122.303 101.379 123.247 103.86C124.192 106.341 125.658 110.288 127.124 114.235C125.091 114.228 123.058 114.22 121.025 114.213C120.751 121.128 120.476 128.042 120.202 134.957C118.321 134.957 116.439 134.957 114.557 134.957C113.546 128.042 112.535 121.128 111.525 114.213C109.936 114.213 108.346 114.213 106.757 114.213C107.372 109.174 107.987 104.135 108.322 99.8957C108.658 95.6564 108.714 92.2168 108.616 90.5537C108.517 88.8902 108.263 89.0032 106.431 91.428C104.598 93.8523 101.187 98.5888 99.1992 101.041C97.2118 103.494 96.6478 103.663 96.0136 103.635C95.3793 103.607 94.6744 103.382 92.8556 101.337C91.0375 99.2933 88.1055 95.4312 86.6397 93.8523C85.1735 92.2731 85.1735 92.9784 85.3568 96.1361C85.5401 99.2933 85.9064 104.904 86.4875 111.783C87.0681 118.661 87.8631 126.809 88.6582 134.957C86.5834 134.957 84.509 134.957 82.4345 134.957C81.0919 127.965 79.75 120.973 78.4073 113.982C77.1105 120.973 75.8136 127.965 74.5167 134.957C72.346 134.957 70.1749 134.957 68.0042 134.957C68.4272 129.319 68.8501 123.68 69.005 118.972C69.1604 114.264 69.0474 110.486 68.7938 105.933C68.5401 101.379 68.1456 96.0514 67.7649 93.2324C67.3843 90.4127 67.0176 90.1024 65.0861 88.073C63.155 86.0429 59.6595 82.2933 57.7704 79.7136C55.8816 77.1339 55.5996 75.7248 55.783 74.5406C55.9663 73.3564 56.6145 72.3978 58.1227 71.2564C59.6312 70.1141 61.9996 68.7889 63.6483 67.3231C65.2975 65.8573 66.228 64.2497 67.2146 62.8084C68.2007 61.3663 69.2427 60.0893 70.3143 59.3424C71.3855 58.5955 72.4859 58.3784 74.1494 58.1989C75.8132 58.0195 78.041 57.8789 79.7321 57.9915C81.4239 58.1042 82.5798 58.4708 83.7217 60.0353C84.8636 61.6001 85.9911 64.3631 86.4983 66.4496C87.0059 68.5353 86.8929 69.9451 86.2307 71.6366C85.5681 73.3284 84.3556 75.3015 83.7497 76.387C83.1434 77.4722 83.1434 77.6699 84.6938 79.9956C86.2447 82.3213 89.3456 86.7762 91.5731 89.9474C93.8005 93.119 95.1533 95.0082 95.9006 95.8964C96.6478 96.7843 96.7888 96.6717 98.4943 93.951C100.2 91.2303 103.47 85.9023 105.754 82.8014C108.037 79.7 109.334 78.8258 110.561 78.3181C111.787 77.8105 112.943 77.6699 113.521 77.4303C113.996 77.2333 114.081 76.97 114.08 76.7416C112.641 76.8663 111.333 76.9789 110.976 77.0702C110.123 77.2885 108.939 77.3875 108.142 77.2396C107.346 77.0916 106.937 76.6966 106.873 76.577C106.81 76.4569 107.092 76.6123 107.74 76.4927C108.389 76.3727 109.404 75.9781 109.622 74.9628C109.841 73.9479 109.263 72.3132 109.397 70.544C109.531 68.7749 110.376 66.8718 111.434 65.9206C112.491 64.9686 113.76 64.9686 114.514 65.0957C115.268 65.2223 115.508 65.4763 115.747 65.7299C115.987 65.4763 116.227 65.2223 116.981 65.0957C117.735 64.9686 119.004 64.9686 120.061 65.9206C121.119 66.8718 121.964 68.7749 122.098 70.544C122.232 72.3132 121.654 73.9479 121.872 74.9628C122.091 75.9781 123.106 76.3727 123.755 76.4927C124.403 76.6123 124.685 76.4569 124.622 76.577C124.558 76.6966 124.149 77.0916 123.353 77.2396C122.556 77.3875 121.372 77.2885 120.519 77.0702C119.666 76.8516 119.145 76.5133 118.623 76.175C118.528 76.2363 118.244 76.2981 117.837 76.3587ZM62.5212 73.4411C62.0279 73.5821 61.0407 74.2023 60.8154 74.9073C60.5897 75.6118 61.1257 76.401 62.2956 77.8672C63.4654 79.333 65.2695 81.4754 66.2704 82.3497C67.2712 83.2235 67.4686 82.8289 67.6803 82.11C67.8915 81.3911 68.1168 80.3479 67.8772 79.4177C67.6379 78.4875 66.933 77.6695 66.0447 76.7816C65.1569 75.8934 64.0857 74.9352 63.5501 74.287C63.0145 73.6384 63.0144 73.3001 62.5212 73.4411ZM75.6163 63.3153C79.0268 63.3153 81.7906 66.006 81.7906 69.3249C81.7906 72.6437 79.0268 75.3341 75.6163 75.3341C72.2066 75.3341 69.4424 72.6437 69.4424 69.3249C69.4424 66.006 72.2066 63.3153 75.6163 63.3153ZM75.5172 49.7871C77.8449 49.7871 79.7317 51.6238 79.7317 53.8893C79.7317 56.1548 77.8449 57.9915 75.5172 57.9915C73.1896 57.9915 71.3028 56.1548 71.3028 53.8893C71.3028 51.6238 73.1896 49.7871 75.5172 49.7871Z" fill="white" fill-opacity="0.5"/>
</svg>
