<svg width="226" height="156" viewBox="0 0 226 156" fill="none" xmlns="http://www.w3.org/2000/svg">
<path fill-rule="evenodd" clip-rule="evenodd" d="M111.869 0.350429C112.55 -0.116808 113.449 -0.11681 114.131 0.350425L141.685 19.2405V2C141.685 0.89543 142.58 0 143.685 0H182.673C183.777 0 184.673 0.89543 184.673 2V48.7116L225.131 76.4482C225.568 76.7482 225.869 77.2096 225.966 77.731C226.063 78.2525 225.949 78.7912 225.65 79.2287L213.567 96.8533C212.942 97.7643 211.697 97.9966 210.786 97.3721L185.746 80.2067V138.507H206.338C207.443 138.507 208.338 139.402 208.338 140.507V153.211C208.338 154.315 207.443 155.211 206.338 155.211H19.6617C18.5571 155.211 17.6617 154.315 17.6617 153.211V140.507C17.6617 139.402 18.5571 138.507 19.6617 138.507H40.2539V80.2067L15.2138 97.3721C14.3028 97.9966 13.058 97.7643 12.4334 96.8533L0.350442 79.2287C0.0505082 78.7912 -0.0633467 78.2525 0.0339237 77.7311C0.131194 77.2096 0.431622 76.7482 0.869117 76.4482L111.869 0.350429ZM41.0712 74.7968L14.6017 92.942L4.78048 78.6165L113 4.42487L142.554 24.6861C143.166 25.1058 143.96 25.1519 144.617 24.8059C145.274 24.4599 145.685 23.7787 145.685 23.0365V4H180.673V49.7654C180.673 50.4249 180.998 51.042 181.542 51.4149L221.22 78.6165L211.398 92.942L184.93 74.798C184.913 74.7851 184.895 74.7724 184.877 74.76L114.131 26.2637C113.449 25.7966 112.55 25.7966 111.869 26.2637L41.1231 74.76C41.1055 74.772 41.0883 74.7842 41.0712 74.7968ZM44.2539 77.4646L113 30.3382L181.746 77.4647V140.507C181.746 141.612 182.642 142.507 183.746 142.507H204.338V151.211H21.6617V142.507H42.2539C43.3585 142.507 44.2539 141.612 44.2539 140.507V77.4646Z" fill="white" fill-opacity="0.5"/>
<path fill-rule="evenodd" clip-rule="evenodd" d="M140.841 81.2133C140.694 81.2734 140.544 81.3278 140.39 81.3753C140.561 81.6066 140.545 81.885 140.574 82.0909C140.618 82.3979 140.764 82.5442 141.364 82.7638C141.964 82.9829 143.016 83.2751 144.201 84.0063C145.385 84.7376 146.701 85.9073 149.056 89.2563C151.41 92.6049 154.803 98.1325 156.645 101.145C158.487 104.157 158.78 104.654 159.072 104.903C159.365 105.152 159.657 105.152 160.213 104.772C160.769 104.391 161.588 103.631 162.845 103.09C164.103 102.549 165.799 102.227 166.764 102.023C167.729 101.818 167.964 101.73 168.08 101.423C168.191 101.133 168.197 100.647 168.308 100.324C166.544 99.977 165.215 98.4604 165.215 96.6409C165.215 94.5663 166.943 92.8841 169.075 92.8841C169.325 92.8841 169.569 92.9075 169.806 92.9518C170.118 92.2217 170.442 91.4913 171.262 90.7197C172.102 89.9288 173.462 89.0951 174.581 89.3586C175.699 89.6217 176.577 90.9816 176.781 92.2467C176.986 93.5115 176.518 94.6811 176.321 95.4636C176.124 96.2456 176.196 96.6409 176.504 96.8166C176.811 96.9918 177.351 96.9479 177.688 96.765C178.025 96.5825 178.156 96.2605 178.104 96.4C178.054 96.5386 177.82 97.1381 177.301 97.5475C176.782 97.9568 175.977 98.176 175.385 97.8694C174.793 97.562 174.413 96.7283 174.186 95.91C173.959 95.0909 173.886 94.2863 173.608 93.8185C173.33 93.3503 172.848 93.219 172.426 93.3382C172.117 93.4252 171.841 93.6472 171.546 93.7544C172.395 94.443 172.936 95.4805 172.936 96.6409C172.936 98.5777 171.429 100.172 169.495 100.375L169.499 100.385C169.601 100.648 169.601 100.969 169.645 101.247C169.689 101.525 169.777 101.759 170.142 101.92C170.508 102.081 171.151 102.168 172.219 103.017C173.286 103.865 174.778 105.474 176.123 106.951C177.469 108.427 178.668 109.772 179.794 110.738C180.92 111.703 181.972 112.288 182.309 112.726C182.645 113.165 182.265 113.458 181.548 113.589C180.832 113.721 179.779 113.692 178.624 112.946C177.469 112.2 176.211 110.738 175.26 109.817C174.31 108.895 173.667 108.515 173.243 108.544C172.818 108.573 172.614 109.012 172.57 109.509C172.526 110.006 172.643 110.562 173.728 112.726C174.813 114.89 176.866 118.663 178.919 122.436C176.799 122.436 174.678 122.436 172.558 122.436C172.397 128.958 172.236 135.48 172.075 142.002C170.942 142.002 169.808 142.002 168.674 142.002C167.93 135.48 167.186 128.958 166.443 122.436C164.394 122.436 162.346 122.436 160.297 122.436C161.995 117.113 163.692 111.791 164.541 108.939C165.39 106.088 165.39 105.707 165.053 105.664C164.717 105.619 164.044 105.912 163.05 106.482C162.056 107.053 160.739 107.901 159.789 108.354C158.838 108.807 158.254 108.866 157.391 108.091C156.528 107.316 155.388 105.707 153.443 103.148C151.498 100.589 148.749 97.0793 147.272 95.2666C145.795 93.453 145.59 93.3362 145.356 95.2516C145.122 97.1675 144.859 101.116 144.946 103.616C145.034 106.117 145.473 107.169 146.453 109.743C147.433 112.317 148.953 116.411 150.474 120.506C148.365 120.498 146.257 120.49 144.148 120.483C143.863 127.656 143.578 134.829 143.294 142.002C141.342 142.002 139.39 142.002 137.438 142.002C136.389 134.829 135.34 127.656 134.292 120.483C132.643 120.483 130.995 120.483 129.346 120.483C129.984 115.255 130.622 110.028 130.97 105.63C131.318 101.232 131.376 97.6643 131.274 95.939C131.172 94.2133 130.908 94.3306 129.007 96.846C127.107 99.361 123.568 104.274 121.506 106.819C119.444 109.363 118.859 109.539 118.201 109.51C117.543 109.48 116.812 109.246 114.925 107.126C113.039 105.005 109.997 100.999 108.477 99.361C106.956 97.7227 106.956 98.4544 107.146 101.73C107.336 105.005 107.716 110.825 108.319 117.961C108.921 125.097 109.746 133.55 110.571 142.002C108.418 142.002 106.266 142.002 104.114 142.002C102.721 134.749 101.329 127.496 99.9365 120.243C98.5912 127.496 97.2458 134.749 95.9005 142.002C93.6486 142.002 91.3964 142.002 89.1445 142.002C89.5833 136.153 90.022 130.303 90.1828 125.419C90.3439 120.535 90.2267 116.616 89.9636 111.893C89.7005 107.169 89.2911 101.642 88.8963 98.7179C88.5014 95.7928 88.121 95.4708 86.1173 93.3656C84.1141 91.2596 80.4879 87.3699 78.5281 84.6937C76.5687 82.0176 76.2762 80.5558 76.4664 79.3273C76.6566 78.0988 77.329 77.1044 78.8935 75.9203C80.4585 74.7353 82.9154 73.3606 84.6258 71.84C86.3366 70.3194 87.3019 68.6517 88.3253 67.1565C89.3483 65.6605 90.4293 64.3357 91.541 63.5609C92.6522 62.7861 93.7937 62.5609 95.5194 62.3747C97.2455 62.1886 99.5565 62.0427 101.311 62.1596C103.066 62.2764 104.265 62.6568 105.45 64.2797C106.634 65.903 107.804 68.7694 108.33 70.9338C108.857 73.0975 108.739 74.56 108.052 76.3147C107.365 78.0698 106.107 80.1166 105.479 81.2428C104.85 82.3685 104.85 82.5736 106.458 84.9862C108.067 87.3989 111.284 92.0203 113.594 95.3101C115.905 98.6003 117.308 100.56 118.084 101.481C118.859 102.403 119.005 102.286 120.774 99.4633C122.544 96.6409 125.936 91.1137 128.306 87.8969C130.674 84.6796 132.02 83.7726 133.292 83.246C134.564 82.7194 135.764 82.5736 136.363 82.325C136.855 82.1207 136.944 81.8475 136.943 81.6106C135.45 81.74 134.093 81.8568 133.722 81.9515C132.838 82.1779 131.609 82.2807 130.783 82.1272C129.957 81.9736 129.533 81.5639 129.467 81.4398C129.401 81.3153 129.694 81.4765 130.366 81.3524C131.039 81.2279 132.092 80.8185 132.318 79.7653C132.545 78.7125 131.946 77.0166 132.085 75.1813C132.224 73.3461 133.101 71.3718 134.197 70.3851C135.294 69.3975 136.61 69.3975 137.393 69.5293C138.175 69.6606 138.424 69.9241 138.673 70.1872C138.921 69.9241 139.17 69.6606 139.952 69.5293C140.735 69.3975 142.051 69.3975 143.148 70.3851C144.244 71.3718 145.122 73.3461 145.26 75.1813C145.399 77.0166 144.8 78.7125 145.026 79.7653C145.253 80.8185 146.306 81.2279 146.979 81.3524C147.651 81.4765 147.944 81.3153 147.878 81.4398C147.812 81.5639 147.388 81.9736 146.562 82.1272C145.736 82.2807 144.508 82.1779 143.623 81.9515C142.738 81.7246 142.197 81.3737 141.656 81.0228C141.557 81.0864 141.263 81.1505 140.841 81.2133ZM83.4565 78.1867C82.9448 78.3329 81.9206 78.9764 81.6869 79.7077C81.4528 80.4385 82.0089 81.2573 83.2225 82.7783C84.436 84.2989 86.3075 86.5213 87.3458 87.4283C88.3841 88.3348 88.5888 87.9255 88.8084 87.1797C89.0276 86.4339 89.2613 85.3517 89.0127 84.3867C88.7645 83.4217 88.0332 82.5732 87.1118 81.6521C86.1907 80.7307 85.0795 79.7367 84.5239 79.0642C83.9682 78.3913 83.9682 78.0404 83.4565 78.1867ZM97.0412 67.6823C100.579 67.6823 103.446 70.4737 103.446 73.9166C103.446 77.3595 100.579 80.1505 97.0412 80.1505C93.504 80.1505 90.6365 77.3595 90.6365 73.9166C90.6365 70.4737 93.504 67.6823 97.0412 67.6823ZM96.9384 53.6484C99.353 53.6484 101.31 55.5538 101.31 57.904C101.31 60.2542 99.353 62.1596 96.9384 62.1596C94.5237 62.1596 92.5664 60.2542 92.5664 57.904C92.5664 55.5538 94.5237 53.6484 96.9384 53.6484Z" fill="white" fill-opacity="0.5"/>
<path fill-rule="evenodd" clip-rule="evenodd" d="M48.6768 142.002C48.6768 140.897 49.5722 140.002 50.6768 140.002H192.169C193.274 140.002 194.169 140.897 194.169 142.002C194.169 143.107 193.274 144.002 192.169 144.002H50.6768C49.5722 144.002 48.6768 143.107 48.6768 142.002Z" fill="white" fill-opacity="0.5"/>
</svg>
