<svg width="40" height="40" viewBox="0 0 40 40" fill="none" xmlns="http://www.w3.org/2000/svg">
<g clip-path="url(#clip0_97_2645)">
<path d="M40 0H0V40H40V0Z" fill="#61A8DE"/>
<path d="M31.4977 8.83007L4.7492 19.2537C3.88281 19.5913 3.9353 20.8346 4.82714 21.0979L11.6242 23.1051L14.1609 31.1542C14.4259 31.995 15.4913 32.2499 16.1081 31.6201L19.6224 28.0319L26.5177 33.0932C27.3615 33.7126 28.5632 33.2524 28.7775 32.2278L33.3443 10.3939C33.5679 9.3244 32.5157 8.43335 31.4977 8.83007ZM28.1441 13.6756L15.7196 24.6626C15.5958 24.7721 15.517 24.9237 15.4985 25.088L15.0202 29.3403C15.0045 29.479 14.8105 29.4974 14.7691 29.3641L12.801 23.0224C12.7108 22.7321 12.8284 22.4175 13.0867 22.2573L27.7587 13.1575C28.0961 12.9481 28.4416 13.4126 28.1441 13.6756Z" fill="white"/>
</g>
<defs>
<clipPath id="clip0_97_2645">
<rect width="40" height="40" rx="11" fill="white"/>
</clipPath>
</defs>
</svg>
