<svg width="40" height="40" viewBox="0 0 40 40" fill="none" xmlns="http://www.w3.org/2000/svg">
<g clip-path="url(#clip0_97_2649)">
<path d="M40 0H0V40H40V0Z" fill="#7D3DAF"/>
<path d="M32.6502 12.8935L32.6423 12.8619C32.0033 10.2788 29.1227 7.50701 26.4772 6.93036L26.4474 6.92421C22.1686 6.10794 17.83 6.10794 13.5521 6.92421L13.5213 6.93036C10.8768 7.50701 7.99616 10.2788 7.35631 12.8619L7.34929 12.8935C6.55935 16.5009 6.55935 20.1592 7.34929 23.7666L7.35631 23.7982C7.96887 26.2711 10.635 28.9155 13.1817 29.6428V32.5262C13.1817 33.5698 14.4535 34.0824 15.1767 33.3293L18.0982 30.2926C18.7318 30.328 19.3658 30.3478 19.9997 30.3478C22.1536 30.3478 24.3084 30.1441 26.4474 29.736L26.4772 29.7299C29.1227 29.1532 32.0033 26.3814 32.6423 23.7983L32.6502 23.7667C33.4401 20.1592 33.4401 16.5009 32.6502 12.8935ZM30.3383 23.2435C29.9117 24.9287 27.7245 27.0238 25.9866 27.4109C23.7115 27.8435 21.4184 28.0284 19.1275 27.965C19.082 27.9637 19.0382 27.9814 19.0064 28.014C18.6813 28.3477 16.8733 30.2037 16.8733 30.2037L14.6044 32.5323C14.4386 32.7052 14.1472 32.5876 14.1472 32.3489V27.5722C14.1472 27.4933 14.0908 27.4262 14.0133 27.411C14.0129 27.4109 14.0124 27.4109 14.012 27.4108C12.2741 27.0237 10.0877 24.9286 9.6603 23.2434C8.94936 19.9827 8.94936 16.6772 9.6603 13.4166C10.0877 11.7313 12.2741 9.63625 14.012 9.24918C17.9854 8.49347 22.0141 8.49347 25.9866 9.24918C27.7253 9.63625 29.9117 11.7313 30.3383 13.4166C31.05 16.6773 31.05 19.9828 30.3383 23.2435Z" fill="white"/>
<path d="M23.7797 25.4487C23.5125 25.3676 23.2579 25.3131 23.0214 25.215C20.5712 24.1984 18.3162 22.8869 16.53 20.8765C15.5142 19.7333 14.7192 18.4426 14.0471 17.0767C13.7284 16.429 13.4598 15.7559 13.1861 15.0871C12.9364 14.4773 13.3041 13.8473 13.6913 13.3878C14.0545 12.9566 14.522 12.6266 15.0283 12.3833C15.4234 12.1935 15.8132 12.303 16.1018 12.6379C16.7257 13.362 17.2987 14.1232 17.7628 14.9625C18.0481 15.4788 17.9698 16.1099 17.4527 16.4612C17.327 16.5466 17.2125 16.6468 17.0954 16.7433C16.9927 16.8278 16.8961 16.9132 16.8257 17.0277C16.697 17.2371 16.6908 17.4841 16.7737 17.7118C17.4114 19.4644 18.4864 20.8272 20.2504 21.5612C20.5327 21.6787 20.8162 21.8154 21.1414 21.7775C21.686 21.7139 21.8623 21.1165 22.244 20.8044C22.617 20.4994 23.0937 20.4953 23.4955 20.7496C23.8974 21.004 24.287 21.277 24.6743 21.553C25.0544 21.8239 25.4329 22.0888 25.7835 22.3976C26.1206 22.6945 26.2368 23.0841 26.0469 23.487C25.6993 24.225 25.1936 24.839 24.464 25.2309C24.258 25.3414 24.012 25.3772 23.7797 25.4487C24.012 25.3772 23.5125 25.3675 23.7797 25.4487Z" fill="white"/>
<path d="M20.0065 11.5389C23.2115 11.6287 25.8438 13.7557 26.4079 16.9242C26.504 17.4641 26.5383 18.0161 26.581 18.5641C26.599 18.7945 26.4685 19.0135 26.2197 19.0165C25.9628 19.0196 25.8472 18.8046 25.8306 18.5742C25.7976 18.1182 25.7747 17.6601 25.7118 17.2078C25.38 14.8203 23.4763 12.8451 21.0999 12.4213C20.7423 12.3575 20.3763 12.3407 20.0141 12.3027C19.7851 12.2787 19.4852 12.2648 19.4344 11.9802C19.3919 11.7415 19.5933 11.5515 19.8205 11.5393C19.8823 11.5359 19.9445 11.5387 20.0065 11.5389C23.2115 11.6287 19.9445 11.5387 20.0065 11.5389Z" fill="white"/>
<path d="M24.8763 17.8533C24.871 17.8933 24.8682 17.9874 24.8448 18.0761C24.7597 18.3978 24.2719 18.4381 24.1596 18.1134C24.1263 18.017 24.1213 17.9074 24.1211 17.8036C24.12 17.1248 23.9724 16.4467 23.6301 15.8561C23.2783 15.2491 22.7407 14.7388 22.1101 14.43C21.7289 14.2433 21.3165 14.1272 20.8986 14.0581C20.716 14.0279 20.5314 14.0095 20.3479 13.984C20.1255 13.9531 20.0067 13.8114 20.0172 13.5922C20.0271 13.3868 20.1772 13.2391 20.401 13.2517C21.1365 13.2935 21.8469 13.4525 22.5008 13.7987C23.8305 14.5029 24.5901 15.6144 24.8118 17.0987C24.8218 17.1659 24.8379 17.2325 24.843 17.3C24.8556 17.4667 24.8635 17.6335 24.8763 17.8533C24.871 17.8933 24.8635 17.6335 24.8763 17.8533Z" fill="white"/>
<path d="M22.8833 17.7753C22.6152 17.7801 22.4717 17.6317 22.444 17.3859C22.4248 17.2145 22.4096 17.0408 22.3687 16.874C22.2881 16.5455 22.1136 16.2412 21.8373 16.0399C21.7068 15.9448 21.559 15.8756 21.4042 15.8309C21.2075 15.7741 21.0033 15.7897 20.807 15.7416C20.5939 15.6894 20.476 15.5169 20.5096 15.3169C20.54 15.135 20.717 14.993 20.9158 15.0074C22.1584 15.0971 23.0465 15.7395 23.1732 17.2023C23.1822 17.3055 23.1927 17.4146 23.1698 17.5133C23.1306 17.6824 23.0054 17.7671 22.8833 17.7753C23.0054 17.7671 22.6152 17.7801 22.8833 17.7753Z" fill="white"/>
</g>
<defs>
<clipPath id="clip0_97_2649">
<rect width="40" height="40" rx="11" fill="white"/>
</clipPath>
</defs>
</svg>
