<svg width="40" height="40" viewBox="0 0 40 40" fill="none" xmlns="http://www.w3.org/2000/svg">
<g clip-path="url(#clip0_97_2639)">
<path d="M40 0H0V40H40V0Z" fill="#1BD741"/>
<path d="M6.01172 34.0038L7.97103 27.045C6.71108 24.9045 6.0477 22.4692 6.0477 19.9673C6.0477 12.2641 12.3147 5.99707 20.018 5.99707C27.7212 5.99707 33.9881 12.2641 33.9881 19.9673C33.9881 27.6706 27.7212 33.9376 20.018 33.9376C17.6177 33.9376 15.2674 33.3232 13.1881 32.1565L6.01172 34.0038ZM13.555 29.6149L13.9827 29.8761C15.7955 30.9828 17.8825 31.5678 20.018 31.5678C26.4145 31.5678 31.6183 26.3638 31.6183 19.9673C31.6183 13.5708 26.4145 8.36689 20.018 8.36689C13.6215 8.36689 8.41752 13.5708 8.41752 19.9673C8.41752 22.1961 9.05097 24.3604 10.2492 26.2264L10.5372 26.6748L9.4089 30.6822L13.555 29.6149Z" fill="white"/>
<path d="M16.0939 13.4651L15.1874 13.4157C14.9026 13.4002 14.6233 13.4953 14.4081 13.6823C13.9687 14.0639 13.266 14.8017 13.0501 15.7631C12.7283 17.1967 13.2257 18.9521 14.513 20.7076C15.8004 22.463 18.1994 25.2716 22.4416 26.4712C23.8087 26.8578 24.8841 26.5972 25.7138 26.0664C26.3709 25.6461 26.8239 24.9714 26.9871 24.2087L27.1319 23.5326C27.1779 23.3178 27.0688 23.0998 26.8692 23.0078L23.8055 21.5956C23.6066 21.504 23.3708 21.5619 23.237 21.7353L22.0343 23.2944C21.9435 23.4122 21.7879 23.4589 21.6475 23.4096C20.8238 23.1201 18.0649 21.9646 16.551 19.0485C16.4853 18.922 16.5016 18.7685 16.5948 18.6606L17.7442 17.3309C17.8617 17.1951 17.8913 17.0042 17.8208 16.8392L16.5002 13.7496C16.4299 13.5851 16.2723 13.4749 16.0939 13.4651Z" fill="white"/>
</g>
<defs>
<clipPath id="clip0_97_2639">
<rect width="40" height="40" rx="11" fill="white"/>
</clipPath>
</defs>
</svg>
